<svg width="160" height="25" viewBox="0 0 160 25" fill="none" xmlns="http://www.w3.org/2000/svg">
<path d="M20.7401 9.83345L16.6032 13.9385C16.4354 14.1015 16.2104 14.1927 15.9761 14.1927C15.7418 14.1927 15.5168 14.1015 15.349 13.9385L6.96287 5.87768L6.0082 4.94471L5.29688 4.25432L8.85349 0.746372C9.35819 0.267245 10.0284 0 10.7254 0C11.4224 0 12.0926 0.267245 12.5973 0.746372L20.6839 8.80719C20.7573 8.86953 20.8173 8.9461 20.8601 9.03225C20.9029 9.11839 20.9276 9.21232 20.9329 9.30831C20.9382 9.4043 20.9238 9.50035 20.8906 9.59063C20.8575 9.6809 20.8063 9.76352 20.7401 9.83345Z" fill="#1877F2"/>
<path d="M20.0861 20.9528L17.3344 23.6957C16.91 24.1206 16.3741 24.4178 15.7881 24.5531C15.2021 24.6884 14.5897 24.6564 14.0211 24.4607L2.07835 20.5049C1.46219 20.2923 0.929324 19.8908 0.556085 19.3579C0.182846 18.825 -0.0116207 18.1879 0.000537248 17.5381V11.1753C0.000893205 10.5123 0.139146 9.85666 0.406565 9.24966C0.673984 8.64266 1.06476 8.09753 1.55422 7.64868L4.47439 4.99906L4.60542 4.8871C4.78793 4.73117 5.02021 4.64516 5.26059 4.64453C5.52458 4.6617 5.77511 4.76685 5.97191 4.94308L6.92658 5.87605C6.76013 5.71024 6.54254 5.60508 6.30885 5.5775C6.05069 5.5775 5.80311 5.67972 5.62056 5.86169C5.43802 6.04365 5.33546 6.29044 5.33546 6.54778V13.5823C5.33345 13.9065 5.43353 14.2231 5.62159 14.4876C5.80965 14.752 6.07622 14.951 6.38373 15.0564L19.824 19.6653C19.9457 19.7133 20.0535 19.7908 20.1376 19.8909C20.2216 19.9909 20.2793 20.1103 20.3053 20.2382C20.3313 20.3661 20.3249 20.4984 20.2866 20.6232C20.2483 20.748 20.1794 20.8613 20.0861 20.9528Z" fill="black"/>
<path d="M6.60519 5.57655C6.24327 5.24952 5.78204 5.05248 5.29486 5.01677C4.8487 5.01674 4.4172 5.17555 4.07812 5.4646L5.36974 4.28906L6.60519 5.57655Z" fill="#1877F2"/>
<path d="M153.721 16.7723C153.729 15.7957 153.603 14.8226 153.346 13.8801C153.12 13.0189 152.668 12.2332 152.036 11.6037C150.782 10.6558 149.266 10.1151 147.693 10.055H146.888C142.808 10.055 139.85 12.2568 139.569 15.4848C139.56 15.6153 139.56 15.7462 139.569 15.8767V15.97C139.569 16.2872 139.569 16.6044 139.569 16.9216C139.61 17.2795 139.673 17.6347 139.756 17.9852C139.564 18.182 139.334 18.338 139.08 18.4438C138.826 18.5497 138.553 18.6031 138.278 18.6009C138.137 18.5986 137.998 18.568 137.869 18.5109C137.74 18.4538 137.624 18.3714 137.528 18.2687C137.432 18.1659 137.358 18.0448 137.31 17.9128C137.261 17.7807 137.241 17.6403 137.248 17.5C137.238 17.4382 137.238 17.3752 137.248 17.3134V15.8207C137.246 14.965 137.139 14.1128 136.93 13.283C136.783 12.5678 136.439 11.9076 135.937 11.3768C135.434 10.846 134.792 10.4657 134.085 10.2789C132.667 9.8969 131.178 9.85851 129.742 10.1669C129.189 10.2624 128.662 10.4688 128.193 10.7735C127.723 11.0782 127.32 11.4749 127.009 11.9396L126.896 10.4095H123.34C123.34 11.0253 123.34 11.6597 123.34 12.2754V12.518C123.34 13.9361 123.34 15.3729 123.34 16.791V19.8138C123.34 20.3922 123.34 20.9893 123.34 21.5678H126.915V21.3252C126.915 19.8324 126.915 18.3397 126.915 16.847C126.952 16.1497 127.078 15.4601 127.29 14.7944C127.28 14.6951 127.28 14.5952 127.29 14.4959C127.4 14.0437 127.633 13.6304 127.963 13.3013C128.293 12.9722 128.708 12.74 129.161 12.63C129.92 12.4623 130.706 12.4623 131.464 12.63C131.835 12.6868 132.186 12.8363 132.484 13.0647C132.782 13.2931 133.017 13.5928 133.167 13.9361C133.174 13.9856 133.174 14.0358 133.167 14.0854C133.381 14.6838 133.482 15.3163 133.467 15.9513C133.467 17.0149 133.467 18.0598 133.467 19.1234V19.2913C133.596 20.0156 133.996 20.6639 134.587 21.1041C135.179 21.5443 135.916 21.7435 136.649 21.6611H136.836C137.567 21.6845 138.291 21.5262 138.945 21.2004C139.599 20.8746 140.161 20.3917 140.58 19.7951C140.732 19.9962 140.895 20.1893 141.067 20.3736C141.829 21.1244 142.79 21.6423 143.837 21.8663C144.91 22.1204 146.012 22.2271 147.113 22.1835C147.905 22.1611 148.694 22.0738 149.472 21.9223C150.742 21.7241 151.926 21.1598 152.878 20.2989C153.141 20.0564 153.365 19.7951 153.627 19.5152L152.13 18.5076C151.082 19.1686 149.885 19.5597 148.648 19.6459C147.638 19.8793 146.588 19.8793 145.578 19.6459C144.892 19.5027 144.281 19.1186 143.856 18.5636C143.514 18.0785 143.308 17.512 143.257 16.9216H153.702L153.721 16.7723ZM143.313 14.9064C143.376 14.4468 143.553 14.0102 143.828 13.6356C144.102 13.2611 144.466 12.9604 144.885 12.7606C146.026 12.2138 147.336 12.1335 148.536 12.5367C149.032 12.7008 149.462 13.02 149.762 13.4468C150.062 13.8736 150.216 14.3854 150.202 14.9064H143.313Z" fill="#16161D"/>
<path d="M122.179 14.348C122.089 13.4577 121.757 12.6086 121.22 11.8919C120.682 11.1753 119.959 10.6181 119.128 10.2803C118.186 9.89625 117.186 9.67538 116.17 9.62719C114.445 9.48812 112.709 9.65233 111.041 10.1123C110.211 10.3516 109.46 10.8085 108.868 11.4353C108.275 12.0622 107.862 12.8361 107.672 13.6763C107.407 14.7962 107.375 15.9582 107.578 17.0909C107.618 17.3953 107.687 17.6953 107.784 17.9866C106.67 18.6157 105.414 18.9497 104.134 18.9568C103.785 18.9277 103.45 18.8138 103.156 18.6251C102.862 18.4364 102.619 18.1787 102.449 17.8746C102.178 17.3821 102.03 16.8316 102.018 16.2699C102.018 15.0197 102.018 13.9188 102.018 12.6873C102.018 12.6873 102.018 12.6873 102.018 12.5567H106.249V9.83245H102.224C102.037 9.83245 101.981 9.83245 101.981 9.60853C101.981 8.26506 101.981 7.14551 101.981 5.87667V5.57812H101.775L98.6115 6.21254C98.4243 6.21254 98.3869 6.3245 98.3869 6.49243V12.706C98.3869 13.8255 98.3869 14.9451 98.3869 16.0647C98.3839 16.689 98.4277 17.3127 98.5179 17.9306C98.6143 18.8251 99.004 19.6628 99.6268 20.314C100.25 20.9651 101.07 21.3932 101.962 21.5318C102.937 21.7183 103.934 21.7561 104.92 21.6438C106.394 21.4757 107.79 20.8933 108.944 19.9644C109.45 20.4511 110.048 20.8317 110.704 21.084C111.932 21.5298 113.235 21.7388 114.541 21.6998C115.952 21.7284 117.359 21.546 118.716 21.1586C119.559 20.8982 120.316 20.4129 120.903 19.7552C121.49 19.0975 121.886 18.2924 122.048 17.4268C122.286 16.4179 122.33 15.3733 122.179 14.348ZM118.435 17.1842C118.301 17.669 118.027 18.104 117.648 18.4355C117.269 18.7671 116.801 18.9808 116.301 19.0501C115.927 19.0501 114.972 19.1434 114.429 19.1994C113.937 19.1337 113.45 19.0403 112.969 18.9195C112.542 18.7923 112.157 18.5513 111.857 18.2226C111.557 17.8938 111.352 17.4896 111.266 17.0536C111.003 16.0756 111.003 15.0461 111.266 14.0681C111.39 13.5622 111.66 13.1036 112.042 12.7488C112.425 12.394 112.903 12.1586 113.418 12.0716C114.42 11.8759 115.449 11.8759 116.451 12.0716C116.904 12.1816 117.319 12.4138 117.649 12.7429C117.979 13.072 118.212 13.4853 118.323 13.9375C118.663 14.9888 118.696 16.1152 118.416 17.1842H118.435Z" fill="#16161D"/>
<path d="M39.8903 17.4641C39.6224 17.4833 39.3534 17.4833 39.0854 17.4641C39.0854 17.6694 39.179 17.8746 39.2352 18.0612C38.0924 18.7019 36.8025 19.0362 35.4914 19.0315C35.1416 18.9991 34.8045 18.8841 34.5083 18.6958C34.212 18.5076 33.9651 18.2517 33.7879 17.9492C33.5227 17.4553 33.3815 16.9047 33.3761 16.3445C33.3761 15.0944 33.3761 13.9935 33.3761 12.762V9.60853C33.3761 8.26506 33.3761 7.14551 33.3761 5.87667V5.57812H33.1889L30.0254 6.21254C29.8195 6.21254 29.8008 6.3245 29.8008 6.49243V12.706C29.8008 13.8255 29.8008 14.9451 29.8008 16.0647C29.8135 16.689 29.8635 17.3121 29.9505 17.9306C30.0469 18.8251 30.4367 19.6628 31.0594 20.314C31.6822 20.9651 32.5031 21.3932 33.3948 21.5318C34.3693 21.7183 35.3666 21.7561 36.3524 21.6438C37.8266 21.4757 39.2224 20.8933 40.377 19.9644L40.5081 20.0764C40.5383 19.7132 40.5883 19.3519 40.6578 18.9942C40.3581 18.5072 40.1013 17.9953 39.8903 17.4641Z" fill="#16161D"/>
<path d="M96.4947 20.1701L96.2139 20.506C95.6572 20.9277 95.0203 21.2324 94.342 21.4016C93.3415 21.6717 92.3085 21.8035 91.2721 21.7935H90.9164C88.8546 21.8355 86.8251 21.2779 85.0761 20.1888C84.7867 19.9987 84.5279 19.7659 84.3086 19.4984L86.1056 17.6511C86.2723 17.8095 86.4472 17.959 86.6297 18.0989C87.2103 18.462 87.8409 18.7386 88.5017 18.9199C89.1016 19.1491 89.7325 19.2875 90.3736 19.3304C91.1931 19.3992 92.0182 19.3553 92.8257 19.1998C93.1479 19.1292 93.4573 19.0096 93.743 18.8453C93.8432 18.7856 93.9287 18.7043 93.9935 18.6075C94.0583 18.5107 94.1006 18.4007 94.1174 18.2855C94.1302 18.1299 94.0938 17.9742 94.0132 17.8403C93.9326 17.7064 93.8119 17.6011 93.6681 17.5392C93.1701 17.3141 92.6393 17.1692 92.0957 17.11C91.1598 16.9607 90.2238 16.8301 89.3066 16.6622H88.9322C88.1951 16.5163 87.4949 16.2244 86.8731 15.8038C86.28 15.3726 85.864 14.7416 85.7022 14.0279C85.5404 13.3142 85.6439 12.5662 85.9933 11.9227C86.1507 11.6163 86.367 11.3437 86.6297 11.1204C87.302 10.5301 88.1246 10.1362 89.0071 9.98214C89.8806 9.7925 90.7712 9.69246 91.6652 9.68359H91.7213H92.4888H92.7509C94.3463 9.79907 95.8682 10.3981 97.1124 11.4002L95.5213 13.4714L95.2405 13.2289C94.3504 12.5436 93.2744 12.1406 92.1519 12.072C91.3825 11.9862 90.6041 12.0304 89.8494 12.2026C89.6657 12.2543 89.4896 12.3296 89.3253 12.4265C89.1921 12.5008 89.0849 12.6139 89.018 12.7506C88.9511 12.8873 88.9277 13.0412 88.9509 13.1915C88.9788 13.2907 89.0286 13.3823 89.0966 13.4598C89.1646 13.5373 89.2491 13.5987 89.344 13.6394C89.7598 13.8438 90.2002 13.9943 90.6543 14.0872C91.5716 14.2738 92.5262 14.4044 93.406 14.591H93.874C94.6694 14.7369 95.4309 15.0278 96.1203 15.4493C96.4994 15.7034 96.8159 16.0395 97.0464 16.4326C97.2769 16.8257 97.4153 17.2657 97.4513 17.7196C97.4873 18.1735 97.4199 18.6296 97.2543 19.054C97.0886 19.4783 96.829 19.8598 96.4947 20.1701Z" fill="#16161D"/>
<path d="M43.0527 5.20703V8.39777H39.4961V5.20703H43.0527Z" fill="#16161D"/>
<path d="M84.1202 16.7728C84.126 15.7963 84 14.8236 83.7458 13.8806C83.4861 13.022 83.0091 12.2444 82.3606 11.6228C81.1025 10.6823 79.5888 10.1425 78.0178 10.0741H77.1942C73.1321 10.0741 70.1558 12.2759 69.8937 15.5039C69.8844 15.6344 69.8844 15.7653 69.8937 15.8958C69.875 16.2189 69.875 16.5429 69.8937 16.8661C69.9306 17.2703 70.0058 17.6702 70.1184 18.0603L70.2868 18.5267C69.9416 18.7525 69.539 18.8755 69.1262 18.8813C68.6583 18.8813 68.078 18.5454 68.078 17.5751V14.3284C68.0721 13.7757 67.943 13.2312 67.7003 12.7342C67.4575 12.2373 67.1069 11.8003 66.674 11.4549C66.0515 10.9631 65.3397 10.5957 64.5775 10.3726C63.3462 10.0855 62.065 10.0855 60.8337 10.3726C60.1999 10.4831 59.6001 10.7374 59.0808 11.116C58.5614 11.4946 58.1364 11.9872 57.8387 12.5558L57.7451 12.3692C57.5065 11.7987 57.1186 11.3025 56.6219 10.9324C56.3577 10.7431 56.0678 10.5923 55.7609 10.4846C54.6343 10.1097 53.4344 10.0074 52.2604 10.186C51.6517 10.2496 51.0656 10.4507 50.5466 10.774C50.0276 11.0973 49.5894 11.5344 49.2653 12.052C49.2653 11.6228 49.2653 11.2123 49.1717 10.8018C49.0782 10.3913 49.1717 10.5592 48.9284 10.5592H45.5403C45.6713 13.0596 45.6713 15.5599 45.6526 18.0229C45.3481 18.3712 44.9308 18.6023 44.4733 18.676H44.3422C44.1427 18.6839 43.9441 18.6456 43.7619 18.5641C43.602 18.4397 43.4683 18.285 43.3687 18.1088C43.2691 17.9327 43.2056 17.7386 43.1817 17.5378C43.1633 17.3579 43.1633 17.1766 43.1817 16.9967C43.1817 16.8101 43.1817 16.6235 43.1817 16.4369V9.40234L39.6063 10.3913V16.922C39.5285 17.2706 39.3821 17.6004 39.1758 17.8923C39.1758 18.7693 39.3443 19.6463 39.363 20.5233C39.6203 20.3059 39.847 20.0548 40.0369 19.7769C40.2128 20.2379 40.4993 20.6489 40.8713 20.9741C41.2433 21.2994 41.6894 21.529 42.1708 21.6428C42.531 21.7488 42.901 21.8175 43.2753 21.8481L44.0802 21.6988C44.6532 21.5435 45.1926 21.2841 45.6713 20.9338C45.6713 21.251 45.6713 21.5682 45.6713 21.8854H49.2279V21.6242C49.2279 19.9635 49.2279 18.3215 49.2279 16.6795C49.2175 16.0157 49.3122 15.3545 49.5087 14.7202C49.5962 14.3007 49.798 13.9134 50.0919 13.6007C50.3858 13.288 50.7604 13.062 51.1747 12.9476C51.7068 12.8147 52.2593 12.783 52.8032 12.8543C53.3192 12.8559 53.8165 13.0472 54.1999 13.3915C54.5832 13.7357 54.8258 14.2089 54.8811 14.7202C54.9968 15.267 55.0657 15.8225 55.087 16.3809V16.6608C55.087 18.1722 55.087 19.6836 55.087 21.195V21.9787H58.6623V16.4929C58.6681 15.996 58.7309 15.5014 58.8495 15.0188C58.8696 14.8919 58.9009 14.767 58.9431 14.6456C59.0204 14.2085 59.2194 13.8019 59.5172 13.472C59.8151 13.1421 60.1999 12.9022 60.6278 12.7797C61.1539 12.6497 61.6986 12.6118 62.2376 12.6677C62.701 12.6799 63.1481 12.8408 63.5123 13.1266C63.8765 13.4123 64.1385 13.8077 64.2593 14.2538C64.27 14.328 64.27 14.4034 64.2593 14.4777C64.4461 15.2289 64.5466 15.9989 64.5588 16.7728V19.5717V19.7396C64.6212 20.2402 64.8331 20.7107 65.1668 21.0899C65.5006 21.4692 65.9409 21.7398 66.4307 21.8668C66.8816 22.0258 67.3563 22.1078 67.8346 22.1093C68.5296 22.1254 69.2187 21.9784 69.8463 21.6802C70.4738 21.382 71.0223 20.941 71.4474 20.3927C72.2091 21.1435 73.1704 21.6614 74.2178 21.8854C75.287 22.1579 76.3919 22.2649 77.4937 22.2026C78.2857 22.1802 79.0746 22.0929 79.8523 21.9414C81.121 21.7506 82.3056 21.1926 83.2591 20.3367L84.0079 19.5343L82.5104 18.5267C81.4698 19.2035 80.2692 19.596 79.0286 19.665C78.0187 19.8984 76.9686 19.8984 75.9587 19.665C75.267 19.5369 74.6507 19.1497 74.2365 18.5827C73.8926 18.0989 73.6857 17.5317 73.6375 16.9407H84.0828L84.1202 16.7728ZM73.7124 14.9068C73.7756 14.4474 73.95 14.0102 74.2207 13.6331C74.4914 13.256 74.8502 12.9502 75.2661 12.7424C76.437 12.1842 77.7804 12.1038 79.0099 12.5184C79.4936 12.6988 79.9079 13.0268 80.1936 13.4557C80.4793 13.8846 80.6219 14.3924 80.601 14.9068H73.7124Z" fill="#16161D"/>
<path d="M155.541 5.10894H157.256V5.53568H156.637V7.12109H156.157V5.53568H155.541V5.10894ZM158.689 5.96524L158.951 5.10894H159.666V7.12109H159.211V6.53045C159.211 6.15741 159.217 5.83241 159.228 5.55828C159.192 5.69676 159.146 5.84937 159.093 6.01611L158.745 7.12109H158.355L158.008 6.01611C157.965 5.88328 157.92 5.73067 157.875 5.56111C157.883 5.87763 157.889 6.20263 157.889 6.53045V7.12109H157.434V5.10894H158.149L158.414 5.97371C158.448 6.09806 158.496 6.2648 158.553 6.47393C158.598 6.29589 158.643 6.12632 158.689 5.96524Z" fill="black"/>
</svg>
